<svg width="24" height="24" viewBox="0 0 24 24" fill="none" xmlns="http://www.w3.org/2000/svg">
<g clip-path="url(#clip0_232_74)">
<path d="M20.6668 10.5C21.0624 10.5 21.4491 10.368 21.778 10.1208C22.1069 9.87357 22.3632 9.52217 22.5146 9.11104C22.666 8.6999 22.7056 8.2475 22.6284 7.81105C22.5512 7.37459 22.3607 6.97368 22.081 6.65901C21.8013 6.34434 21.445 6.13005 21.057 6.04323C20.669 5.95642 20.2669 6.00097 19.9015 6.17127C19.536 6.34157 19.2237 6.62996 19.0039 6.99997C18.7841 7.36998 18.6668 7.80499 18.6668 8.25C18.6668 8.84674 18.8775 9.41903 19.2526 9.84099C19.6277 10.2629 20.1364 10.5 20.6668 10.5V10.5ZM12.9781 8.36484C13.2014 8.28855 13.4335 8.24985 13.6668 8.25C13.9371 8.25253 14.205 8.30788 14.4585 8.41359L15.0981 6.135C15.143 5.97591 15.156 5.80755 15.1359 5.64214C15.1159 5.47673 15.0634 5.31841 14.9822 5.17866C14.901 5.03891 14.7932 4.92124 14.6666 4.83418C14.54 4.74712 14.3977 4.69285 14.2502 4.67531C13.7697 4.61203 13.3247 4.97719 13.1789 5.49609L12.3081 8.59781L12.9781 8.36484ZM3.90225 18.1092C3.93558 18.1003 3.96641 18.0839 4.00016 18.0759V16.8717C4.00125 15.3346 4.43285 13.837 5.23364 12.5917C6.03443 11.3463 7.16368 10.4164 8.461 9.93422L11.5318 8.86734L12.9552 3.79922C12.9999 3.64028 13.0127 3.47215 12.9926 3.30697C12.9725 3.14179 12.92 2.98371 12.8389 2.84415C12.7579 2.70459 12.6502 2.58705 12.5238 2.50002C12.3974 2.41299 12.2554 2.35865 12.1081 2.34094C11.6277 2.27813 11.1822 2.64328 11.0364 3.16219L9.64266 8.15063C9.61597 8.24548 9.55689 8.32453 9.47839 8.37037C9.3999 8.41621 9.30844 8.4251 9.22412 8.39508C9.1398 8.36506 9.06954 8.29858 9.02879 8.21028C8.98804 8.12197 8.98014 8.01908 9.00683 7.92422L10.8139 1.46531C10.8587 1.30638 10.8714 1.13824 10.8513 0.973064C10.8312 0.807889 10.7788 0.649804 10.6977 0.510244C10.6166 0.370685 10.509 0.25314 10.3826 0.166111C10.2562 0.0790825 10.1142 0.024746 9.96683 0.00703192C9.48641 -0.0557806 9.04183 0.309376 8.89558 0.827813L6.8985 7.93922C6.87186 8.03408 6.81283 8.11315 6.73437 8.15903C6.65592 8.20492 6.56448 8.21387 6.48016 8.18391C6.39585 8.15395 6.32556 8.08753 6.28477 7.99927C6.24398 7.91101 6.23603 7.80814 6.26266 7.71328L7.86933 1.99453C7.91407 1.8356 7.92685 1.66746 7.90675 1.50228C7.88665 1.33711 7.83417 1.17902 7.7531 1.03946C7.67203 0.899904 7.56441 0.782359 7.43801 0.69533C7.31161 0.608301 7.1696 0.553965 7.02225 0.536251C6.54183 0.468751 6.09683 0.835782 5.951 1.35469L3.451 10.2539L3.36516 7.90781C3.36599 7.76004 3.34092 7.61352 3.2914 7.47665C3.24188 7.33977 3.16887 7.21521 3.07655 7.11009C2.98422 7.00496 2.8744 6.92133 2.75333 6.86397C2.63227 6.80661 2.50235 6.77664 2.371 6.77578C1.81975 6.77344 1.341 7.26984 1.3335 7.89422V13.1784C1.34662 14.1799 1.59014 15.1605 2.04031 16.0246C2.49049 16.8888 3.13197 17.6069 3.90225 18.1092V18.1092ZM21.6293 15.75H15.0002C14.9118 15.75 14.827 15.7105 14.7645 15.6402C14.7019 15.5698 14.6668 15.4745 14.6668 15.375C14.6668 15.2755 14.7019 15.1802 14.7645 15.1098C14.827 15.0395 14.9118 15 15.0002 15H20.3335C20.4817 15.0001 20.6281 14.9632 20.762 14.8918C20.896 14.8205 21.0142 14.7166 21.108 14.5876C21.2019 14.4585 21.2691 14.3077 21.3048 14.1458C21.3405 13.984 21.3437 13.8153 21.3143 13.6519C21.2231 13.1175 20.7797 12.75 20.296 12.75H12.0002L13.9622 11.9503C14.0878 11.9067 14.2044 11.8356 14.3055 11.7413C14.4067 11.6469 14.4903 11.5311 14.5516 11.4004C14.6129 11.2696 14.6508 11.1266 14.663 10.9795C14.6751 10.8323 14.6615 10.6839 14.6227 10.5427C14.5839 10.4014 14.5207 10.2702 14.4369 10.1565C14.353 10.0427 14.25 9.94863 14.1338 9.87964C14.0176 9.81065 13.8905 9.76808 13.7597 9.75436C13.6289 9.74064 13.4969 9.75604 13.3714 9.79969L8.88308 11.3583C7.85043 11.7402 6.95132 12.4792 6.31394 13.4698C5.67656 14.4604 5.33344 15.6521 5.3335 16.875V18.0773C5.81427 18.1863 6.26767 18.4136 6.66117 18.7429C7.05467 19.0722 7.37852 19.4953 7.60951 19.982C7.8405 20.4687 7.9729 21.0069 7.99722 21.558C8.02154 22.109 7.93717 22.6593 7.75016 23.1694C8.52682 23.7087 9.42081 23.9961 10.3335 24H19.0002C19.1484 24.0001 19.2947 23.9632 19.4287 23.8918C19.5626 23.8205 19.6808 23.7166 19.7747 23.5876C19.8686 23.4585 19.9358 23.3077 19.9714 23.1458C20.0071 22.984 20.0104 22.8153 19.981 22.6519C19.8897 22.1175 19.4464 21.75 18.9627 21.75H15.0002C14.9118 21.75 14.827 21.7105 14.7645 21.6402C14.7019 21.5698 14.6668 21.4745 14.6668 21.375C14.6668 21.2755 14.7019 21.1802 14.7645 21.1098C14.827 21.0395 14.9118 21 15.0002 21H20.3335C20.4817 21.0001 20.6281 20.9632 20.762 20.8918C20.896 20.8205 21.0142 20.7166 21.108 20.5876C21.2019 20.4585 21.2691 20.3077 21.3048 20.1458C21.3405 19.984 21.3437 19.8153 21.3143 19.6519C21.2231 19.1175 20.7797 18.75 20.296 18.75H15.0002C14.9118 18.75 14.827 18.7105 14.7645 18.6402C14.7019 18.5698 14.6668 18.4745 14.6668 18.375C14.6668 18.2755 14.7019 18.1802 14.7645 18.1098C14.827 18.0395 14.9118 18 15.0002 18H21.6668C21.815 18.0001 21.9614 17.9632 22.0954 17.8918C22.2293 17.8205 22.3475 17.7166 22.4414 17.5876C22.5352 17.4585 22.6024 17.3077 22.6381 17.1458C22.6738 16.984 22.6771 16.8153 22.6477 16.6519C22.5564 16.1175 22.1131 15.75 21.6293 15.75ZM17.3335 3C17.5972 3 17.855 2.91203 18.0743 2.74721C18.2935 2.58238 18.4644 2.34811 18.5653 2.07403C18.6663 1.79994 18.6927 1.49834 18.6412 1.20737C18.5898 0.916394 18.4628 0.649119 18.2763 0.439341C18.0898 0.229562 17.8523 0.0867006 17.5936 0.0288228C17.335 -0.0290551 17.0669 0.000649922 16.8233 0.114181C16.5796 0.227713 16.3714 0.419972 16.2249 0.666645C16.0784 0.913319 16.0002 1.20333 16.0002 1.5C16.0002 1.89783 16.1406 2.27936 16.3907 2.56066C16.6407 2.84197 16.9799 3 17.3335 3ZM4.66683 19.5C4.27127 19.5 3.88459 19.632 3.55569 19.8792C3.22679 20.1264 2.97045 20.4778 2.81907 20.889C2.6677 21.3001 2.62809 21.7525 2.70526 22.189C2.78243 22.6254 2.97291 23.0263 3.25262 23.341C3.53232 23.6557 3.88869 23.87 4.27665 23.9568C4.66461 24.0436 5.06674 23.999 5.4322 23.8287C5.79765 23.6584 6.11001 23.37 6.32977 23C6.54953 22.63 6.66683 22.195 6.66683 21.75C6.66683 21.1533 6.45612 20.581 6.08104 20.159C5.70597 19.7371 5.19726 19.5 4.66683 19.5Z" fill="black"/>
</g>
<defs>
<clipPath id="clip0_232_74">
<rect width="24" height="24" fill="white"/>
</clipPath>
</defs>
</svg>
